<svg width="116" height="72" viewBox="0 0 116 72" fill="none" xmlns="http://www.w3.org/2000/svg">
<path d="M106.332 9.6H72.4992V0H106.332V9.6ZM114.674 57.6C112.538 63.8256 104.868 72 90.0199 72C75.1624 72 63.1275 63.7008 63.1275 44.76C63.1275 25.992 74.3649 16.344 89.5462 16.344C104.442 16.344 113.539 24.8976 115.525 37.5888C115.902 40.0176 116.052 43.2912 115.984 47.8608H77.1875C77.8158 63.2736 94.0218 63.7584 99.3626 57.6H114.674ZM77.5258 38.4H101.523C101.016 30.9744 96.0325 27.7488 89.551 27.7488C82.4654 27.7488 78.5457 31.4352 77.5258 38.4ZM31.252 71.9424H0V0.1008H33.6058C60.0728 0.4896 60.5755 26.232 46.7523 33.2496C63.4803 39.2976 64.041 71.9424 31.252 71.9424V71.9424ZM14.4998 28.8H31.8223C43.9442 28.8 45.8678 14.4 30.3143 14.4H14.4998V28.8V28.8ZM30.8895 43.2H14.4998V57.6768H30.6478C45.4135 57.6768 44.5097 43.2 30.8895 43.2V43.2Z" fill="white"/>
</svg>
