<svg width="116" height="113" viewBox="0 0 116 113" fill="none" xmlns="http://www.w3.org/2000/svg">
<path fill-rule="evenodd" clip-rule="evenodd" d="M58 0C25.955 0 0 25.9233 0 57.9291C0 83.5627 16.6025 105.214 39.6575 112.889C42.5575 113.396 43.645 111.658 43.645 110.138C43.645 108.762 43.5725 104.2 43.5725 99.3484C29 102.028 25.23 95.8002 24.07 92.5417C23.4175 90.8763 20.59 85.7351 18.125 84.3592C16.095 83.2731 13.195 80.5939 18.0525 80.5214C22.62 80.449 25.8825 84.7213 26.97 86.4592C32.19 95.221 40.5275 92.759 43.8625 91.2383C44.37 87.4729 45.8925 84.9385 47.56 83.4903C34.655 82.0421 21.17 77.0457 21.17 54.8878C21.17 48.588 23.4175 43.3744 27.115 39.3194C26.535 37.8711 24.505 31.9334 27.695 23.9682C27.695 23.9682 32.5525 22.4475 43.645 29.9059C48.285 28.6025 53.215 27.9508 58.145 27.9508C63.075 27.9508 68.005 28.6025 72.645 29.9059C83.7375 22.3751 88.595 23.9682 88.595 23.9682C91.785 31.9334 89.755 37.8711 89.175 39.3194C92.8725 43.3744 95.12 48.5156 95.12 54.8878C95.12 77.1181 81.5625 82.0421 68.6575 83.4903C70.76 85.3006 72.5725 88.7763 72.5725 94.2072C72.5725 101.955 72.5 108.183 72.5 110.138C72.5 111.658 73.5875 113.469 76.4875 112.889C88.0016 109.007 98.0068 101.616 105.095 91.757C112.183 81.8978 115.997 70.0667 116 57.9291C116 25.9233 90.045 0 58 0Z" fill="white"/>
</svg>
