<svg width="107" height="104" viewBox="0 0 107 104" fill="none" xmlns="http://www.w3.org/2000/svg">
<path fill-rule="evenodd" clip-rule="evenodd" d="M53.6466 0.665039C39.2137 0.665039 37.4069 0.723188 31.7387 0.972886C26.081 1.22258 22.2159 2.0914 18.8362 3.36041C15.2935 4.64653 12.0803 6.66464 9.42328 9.27791C6.721 11.8403 4.62953 14.9406 3.29444 18.3628C1.98719 21.626 1.08381 25.3612 0.825189 30.8238C0.570116 36.2932 0.506348 38.0342 0.506348 51.9729C0.506348 65.9115 0.566573 67.6526 0.825189 73.1254C1.08381 78.588 1.98365 82.3198 3.29798 85.5829C4.63003 89.0035 6.72021 92.1059 9.42683 94.6713C12.0808 97.2803 15.2918 99.2996 18.8362 100.589C22.2159 101.854 26.081 102.723 31.7387 102.973C37.4069 103.223 39.2137 103.281 53.6466 103.281C68.0795 103.281 69.8863 103.223 75.5546 102.973C81.2122 102.723 85.0773 101.854 88.457 100.585C91.9997 99.2992 95.2129 97.2811 97.8699 94.6679C100.572 92.1054 102.664 89.0052 103.999 85.5829C105.31 82.3198 106.209 78.588 106.468 73.1254C106.727 67.6526 106.787 65.9081 106.787 51.9729C106.787 38.0377 106.727 36.2932 106.468 30.8204C106.209 25.3578 105.31 21.626 103.995 18.3628C102.661 14.9391 100.57 11.8376 97.8664 9.27449C95.2125 6.66539 92.0015 4.64604 88.457 3.35699C85.0773 2.09482 81.2087 1.22258 75.551 0.972886C69.8863 0.726608 68.083 0.665039 53.6466 0.665039ZM53.6466 9.91071C67.8351 9.91071 69.5178 9.96202 75.1224 10.2083C80.3018 10.4375 83.1147 11.2687 84.9887 11.9767C87.4686 12.9037 89.24 14.0188 91.0999 15.8111C92.9598 17.6069 94.1111 19.3172 95.0712 21.7115C95.801 23.521 96.6654 26.2369 96.9028 31.2377C97.1578 36.6489 97.211 38.2737 97.211 51.9729C97.211 65.6721 97.1578 67.2968 96.9028 72.7081C96.6654 77.7089 95.8045 80.4248 95.0712 82.2342C94.2207 84.4629 92.8637 86.4791 91.0999 88.1346C89.3855 89.838 87.2972 91.1483 84.9887 91.9691C83.1147 92.6737 80.3018 93.5083 75.1224 93.7375C69.5178 93.9837 67.8386 94.0351 53.6466 94.0351C39.4546 94.0351 37.7754 93.9837 32.1709 93.7375C26.9915 93.5083 24.1786 92.6771 22.3045 91.9691C19.9963 91.1479 17.908 89.8376 16.1934 88.1346C14.4297 86.4789 13.0727 84.4628 12.222 82.2342C11.4922 80.4248 10.6278 77.7089 10.3904 72.7081C10.1354 67.2968 10.0822 65.6721 10.0822 51.9729C10.0822 38.2737 10.1354 36.6489 10.3904 31.2377C10.6278 26.2369 11.4887 23.521 12.222 21.7115C13.1821 19.3172 14.337 17.6069 16.1934 15.8111C17.9078 14.1078 19.9961 12.7975 22.3045 11.9767C24.1786 11.2721 26.9915 10.4375 32.1709 10.2083C37.7754 9.96202 39.4582 9.91071 53.6466 9.91071Z" fill="white"/>
<path fill-rule="evenodd" clip-rule="evenodd" d="M53.6467 69.0926C51.3182 69.0926 49.0125 68.6498 46.8613 67.7894C44.71 66.9291 42.7554 65.6681 41.1089 64.0784C39.4624 62.4886 38.1563 60.6014 37.2653 58.5243C36.3742 56.4473 35.9156 54.2211 35.9156 51.9729C35.9156 49.7247 36.3742 47.4985 37.2653 45.4214C38.1563 43.3444 39.4624 41.4571 41.1089 39.8674C42.7554 38.2777 44.71 37.0167 46.8613 36.1563C49.0125 35.296 51.3182 34.8532 53.6467 34.8532C58.3493 34.8532 62.8593 36.6568 66.1845 39.8674C69.5097 43.078 71.3778 47.4324 71.3778 51.9729C71.3778 56.5133 69.5097 60.8678 66.1845 64.0784C62.8593 67.2889 58.3493 69.0926 53.6467 69.0926ZM53.6467 25.6006C46.4025 25.6006 39.4551 28.3791 34.3327 33.3249C29.2103 38.2706 26.3326 44.9785 26.3326 51.9729C26.3326 58.9672 29.2103 65.6751 34.3327 70.6209C39.4551 75.5666 46.4025 78.3451 53.6467 78.3451C60.8908 78.3451 67.8383 75.5666 72.9607 70.6209C78.0831 65.6751 80.9608 58.9672 80.9608 51.9729C80.9608 44.9785 78.0831 38.2706 72.9607 33.3249C67.8383 28.3791 60.8908 25.6006 53.6467 25.6006ZM88.907 25.1218C88.907 26.7751 88.2268 28.3607 87.016 29.5298C85.8051 30.6989 84.1629 31.3557 82.4505 31.3557C80.7381 31.3557 79.0959 30.6989 77.885 29.5298C76.6742 28.3607 75.9939 26.7751 75.9939 25.1218C75.9939 23.4684 76.6742 21.8828 77.885 20.7137C79.0959 19.5447 80.7381 18.8879 82.4505 18.8879C84.1629 18.8879 85.8051 19.5447 87.016 20.7137C88.2268 21.8828 88.907 23.4684 88.907 25.1218Z" fill="white"/>
</svg>
