<svg width="113" height="113" viewBox="0 0 113 113" fill="none" xmlns="http://www.w3.org/2000/svg">
<path d="M112.999 8.30878V104.691C112.999 106.894 112.124 109.008 110.566 110.566C109.008 112.124 106.894 112.999 104.691 112.999H8.30878C6.10515 112.999 3.99178 112.124 2.43359 110.566C0.875387 109.008 0 106.894 0 104.691L0 8.30878C0 6.10515 0.875387 3.99178 2.43359 2.43359C3.99178 0.875387 6.10515 0 8.30878 0L104.691 0C106.894 0 109.008 0.875387 110.566 2.43359C112.124 3.99178 112.999 6.10515 112.999 8.30878V8.30878ZM33.2351 43.2057H16.6176V96.3818H33.2351V43.2057ZM34.7307 24.9263C34.7395 23.6694 34.5005 22.423 34.0276 21.2583C33.5546 20.0937 32.8569 19.0336 31.9743 18.1386C31.0916 17.2436 30.0413 16.5312 28.8834 16.0421C27.7254 15.5531 26.4824 15.2969 25.2255 15.2882H24.9263C22.3701 15.2882 19.9186 16.3036 18.1111 18.1111C16.3036 19.9186 15.2882 22.3701 15.2882 24.9263C15.2882 27.4825 16.3036 29.9341 18.1111 31.7416C19.9186 33.5491 22.3701 34.5645 24.9263 34.5645V34.5645C26.1834 34.5954 27.4343 34.3784 28.6074 33.9257C29.7806 33.4731 30.853 32.7937 31.7635 31.9264C32.674 31.0591 33.4047 30.0209 33.9138 28.8711C34.4229 27.7214 34.7005 26.4825 34.7307 25.2255V24.9263ZM96.3818 64.0773C96.3818 48.0912 86.2119 41.8763 76.1084 41.8763C72.8003 41.7106 69.5066 42.4152 66.5558 43.9197C63.6051 45.4243 61.1003 47.6762 59.2915 50.4509H58.8262V43.2057H43.2057V96.3818H59.8232V68.0988C59.583 65.2021 60.4954 62.3276 62.3623 60.0998C64.2292 57.872 66.8997 56.4708 69.7937 56.2006H70.4252C75.7096 56.2006 79.6313 59.5241 79.6313 67.8993V96.3818H96.2489L96.3818 64.0773Z" fill="white"/>
</svg>
