<svg width="129" height="104" viewBox="0 0 129 104" fill="none" xmlns="http://www.w3.org/2000/svg">
<path d="M128.523 12.815C123.806 14.8724 118.739 16.2626 113.412 16.8909C118.846 13.688 123.015 8.6056 124.981 2.55565C119.897 5.52502 114.265 7.68254 108.271 8.83915C103.469 3.81235 96.6336 0.665039 89.0637 0.665039C74.5341 0.665039 62.75 12.2645 62.75 26.5775C62.75 28.6016 62.9872 30.5701 63.4279 32.4718C41.5487 31.3875 22.1665 21.0725 9.18472 5.40269C6.92506 9.23952 5.62576 13.688 5.62576 18.4257C5.62576 27.4116 10.275 35.3466 17.3308 39.9897C13.0148 39.8507 8.95876 38.6886 5.41109 36.7479V37.0815C5.41109 49.6319 14.478 60.1025 26.522 62.4825C24.3075 63.0719 21.9857 63.3833 19.5905 63.3833C17.8957 63.3833 16.2405 63.2276 14.6362 62.9273C17.9861 73.2145 27.7026 80.7102 39.2213 80.9104C30.2109 87.8611 18.8617 92.0038 6.53527 92.0038C4.41119 92.0038 2.31536 91.8815 0.253418 91.6423C11.902 98.999 25.7311 103.281 40.5883 103.281C89.0016 103.281 115.468 63.8114 115.468 29.5803C115.468 28.4681 115.44 27.3449 115.389 26.2328C120.529 22.5739 124.992 18.0197 128.512 12.8317L128.523 12.815Z" fill="white"/>
</svg>
