<svg width="107" height="108" viewBox="0 0 107 108" fill="none" xmlns="http://www.w3.org/2000/svg">
<path d="M0 108L7.58591 80.2933C2.92481 72.1653 0.477034 62.9469 0.489003 53.5661C0.435022 24.0057 24.3263 0 53.6888 0C67.9397 0 81.3207 5.55155 91.396 15.6783C96.3622 20.6424 100.299 26.5473 102.977 33.0509C105.655 39.5546 107.023 46.5276 107 53.5661C107 83.0691 83.1084 107.075 53.7428 107.075C44.8042 107.075 36.0815 104.841 28.2797 100.544L0 108ZM29.5276 90.9082L31.1533 91.8877C37.9773 95.9449 45.7597 98.0879 53.6888 98.0933C78.0691 98.0933 97.9531 78.1173 97.9531 53.6171C97.9531 41.7515 93.3489 30.5399 85.0041 22.1583C80.9005 18.0119 76.0209 14.7224 70.6463 12.4795C65.2717 10.2365 59.5085 9.08454 53.6888 9.08987C29.2545 9.09306 9.3768 29.0691 9.3768 53.5693C9.3768 61.9508 11.7075 70.1729 16.1498 77.2495L17.1786 78.9373L12.6823 95.375L29.5307 90.9114L29.5276 90.9082Z" fill="white"/>
<path fill-rule="evenodd" clip-rule="evenodd" d="M40.4158 31.1397C39.441 28.9064 38.3582 28.8521 37.4374 28.8521C36.6245 28.7979 35.7544 28.7979 34.8336 28.7979C33.9699 28.7979 32.506 29.1233 31.2613 30.4857C30.0134 31.8448 26.6031 35.0577 26.6031 41.643C26.6031 48.2315 31.3693 54.5998 32.0202 55.4708C32.668 56.3419 41.2287 70.275 54.7748 75.667C66.0409 80.1306 68.3176 79.2595 70.7563 78.9852C73.1918 78.714 78.6121 75.7755 79.7489 72.6168C80.8317 69.5156 80.8317 66.7941 80.5078 66.2485C80.1839 65.7061 79.2599 65.3775 77.9612 64.6692C76.6053 64.0183 70.1053 60.7512 68.8606 60.3141C67.6127 59.8802 66.7458 59.6632 65.8789 60.9681C65.0121 62.3305 62.4655 65.3232 61.6557 66.1943C60.8937 67.0653 60.0839 67.1738 58.782 66.5197C57.4293 65.8688 53.149 64.4522 48.0557 59.8802C44.0992 56.3387 41.4446 51.9325 40.6318 50.6276C39.876 49.2652 40.5238 48.5569 41.2287 47.9029C41.8257 47.3062 42.5846 46.3267 43.2355 45.5642C43.8833 44.7985 44.0992 44.2018 44.5882 43.3308C45.0201 42.4598 44.8042 41.643 44.4803 40.9921C44.1532 40.3923 41.6098 33.8038 40.4158 31.1365V31.1397Z" fill="white"/>
</svg>
